<svg data-logo="logo" xmlns="http://www.w3.org/2000/svg" viewBox="0 0 238 46">
        <g style="opacity: 1;" id="logogram" transform="translate(0, 2.5) rotate(0)"><path fill-rule="evenodd" clip-rule="evenodd" d="M20.9053 40.0799C31.951 40.0799 40.9053 31.1256 40.9053 20.0799C40.9053 9.03427 31.951 0.0799561 20.9053 0.0799561C9.85956 0.0799561 0.905273 9.03427 0.905273 20.0799C0.905273 31.1256 9.85956 40.0799 20.9053 40.0799ZM27.1446 9.3968C27.4483 8.31801 26.4014 7.68008 25.4453 8.36125L12.0984 17.8695C11.0615 18.6082 11.2246 20.0799 12.3434 20.0799H15.858V20.0527H22.7078L17.1265 22.022L14.666 30.7631C14.3623 31.8419 15.4091 32.4798 16.3653 31.7986L29.7122 22.2904C30.7491 21.5517 30.5859 20.0799 29.4672 20.0799H24.1374L27.1446 9.3968Z" fill="#000000"></path></g>
        <g style="opacity: 1;" id="logotype" transform="translate(43, 1)"><path fill="#000000" d="M13.20 36.35L13.20 36.35Q10.79 36.35 8.84 35.77Q6.90 35.20 5.40 34.09Q3.89 32.99 2.70 31.48L2.70 31.48L6.31 27.39Q8.05 29.73 9.82 30.54Q11.59 31.34 13.48 31.34L13.48 31.34Q14.43 31.34 15.20 31.10Q15.97 30.86 16.39 30.38Q16.80 29.91 16.80 29.21L16.80 29.21Q16.80 28.68 16.54 28.27Q16.28 27.84 15.83 27.53Q15.37 27.21 14.74 26.95Q14.11 26.69 13.41 26.50Q12.71 26.30 11.98 26.16L11.98 26.16Q9.95 25.71 8.44 25.04Q6.94 24.38 5.94 23.42Q4.94 22.45 4.45 21.21Q3.96 19.97 3.96 18.43L3.96 18.43Q3.96 16.78 4.71 15.40Q5.46 14.02 6.74 13.02Q8.02 12.02 9.70 11.48Q11.38 10.94 13.20 10.94L13.20 10.94Q15.62 10.94 17.35 11.45Q19.08 11.95 20.32 12.90Q21.57 13.84 22.44 15.17L22.44 15.17L18.77 18.71Q18.03 17.80 17.17 17.20Q16.32 16.61 15.35 16.29Q14.39 15.98 13.38 15.98L13.38 15.98Q12.33 15.98 11.57 16.24Q10.82 16.50 10.40 16.98Q9.98 17.45 9.98 18.11L9.98 18.11Q9.98 18.71 10.33 19.13Q10.68 19.55 11.28 19.88Q11.87 20.21 12.64 20.44Q13.41 20.67 14.25 20.81L14.25 20.81Q16.18 21.20 17.73 21.82Q19.29 22.45 20.43 23.36Q21.57 24.27 22.18 25.52Q22.79 26.76 22.79 28.41L22.79 28.41Q22.79 30.96 21.55 32.73Q20.31 34.49 18.15 35.42Q16 36.35 13.20 36.35ZM25.98 36L25.98 36L25.98 10.10L31.47 10.10L31.47 21.20L30.35 21.61Q30.74 20.35 31.73 19.32Q32.73 18.29 34.13 17.66Q35.53 17.03 37.07 17.03L37.07 17.03Q39.17 17.03 40.61 17.89Q42.04 18.74 42.78 20.44Q43.51 22.14 43.51 24.59L43.51 24.59L43.51 36L37.88 36L37.88 25.04Q37.88 23.92 37.56 23.19Q37.25 22.45 36.60 22.09Q35.95 21.72 35.01 21.75L35.01 21.75Q34.27 21.75 33.64 21.98Q33.01 22.21 32.56 22.65Q32.10 23.09 31.84 23.64Q31.58 24.20 31.58 24.87L31.58 24.87L31.58 36L28.81 36Q27.83 36 27.13 36Q26.43 36 25.98 36ZM56.25 36.35L56.25 36.35Q53.34 36.35 51.09 35.09Q48.83 33.83 47.52 31.66Q46.20 29.49 46.20 26.69L46.20 26.69Q46.20 23.89 47.52 21.72Q48.83 19.55 51.09 18.29Q53.34 17.03 56.25 17.03L56.25 17.03Q59.16 17.03 61.41 18.29Q63.67 19.55 64.97 21.72Q66.26 23.89 66.26 26.69L66.26 26.69Q66.26 29.49 64.97 31.66Q63.67 33.83 61.41 35.09Q59.16 36.35 56.25 36.35ZM56.25 31.52L56.25 31.52Q57.51 31.52 58.49 30.89Q59.47 30.26 60.03 29.17Q60.59 28.09 60.55 26.69L60.55 26.69Q60.59 25.29 60.03 24.19Q59.47 23.09 58.49 22.45Q57.51 21.82 56.25 21.82L56.25 21.82Q54.99 21.82 53.99 22.45Q53.00 23.09 52.44 24.19Q51.88 25.29 51.91 26.69L51.91 26.69Q51.88 28.09 52.44 29.17Q53.00 30.26 53.99 30.89Q54.99 31.52 56.25 31.52ZM74.87 43.70L69.23 43.70L69.23 17.41L74.56 17.41L74.77 21.58L73.72 21.27Q73.96 20.11 74.91 19.16Q75.85 18.22 77.30 17.64Q78.75 17.06 80.37 17.06L80.37 17.06Q82.75 17.06 84.60 18.31Q86.45 19.55 87.52 21.70Q88.59 23.85 88.59 26.69L88.59 26.69Q88.59 29.49 87.52 31.66Q86.45 33.83 84.58 35.07Q82.71 36.31 80.30 36.31L80.30 36.31Q78.72 36.31 77.28 35.72Q75.85 35.13 74.87 34.11Q73.89 33.09 73.58 31.91L73.58 31.91L74.87 31.41L74.87 43.70ZM78.93 31.59L78.93 31.59Q80.19 31.59 81.14 30.98Q82.08 30.36 82.61 29.28Q83.13 28.20 83.13 26.69L83.13 26.69Q83.13 25.22 82.61 24.12Q82.08 23.02 81.15 22.40Q80.22 21.79 78.93 21.79L78.93 21.79Q77.64 21.79 76.69 22.38Q75.75 22.98 75.22 24.10Q74.70 25.22 74.70 26.69L74.70 26.69Q74.70 28.20 75.22 29.28Q75.75 30.36 76.69 30.98Q77.64 31.59 78.93 31.59ZM98.74 36L93.14 36L93.14 12.72L98.74 12.72L98.74 36ZM102.34 22.31L89.85 22.31L89.85 17.41L102.34 17.41L102.34 22.31ZM110.75 36L105.14 36L105.14 17.41L110.75 17.41L110.75 36ZM107.94 13.74L107.94 13.74Q106.37 13.74 105.48 12.99Q104.58 12.23 104.58 10.83L104.58 10.83Q104.58 9.57 105.50 8.77Q106.41 7.96 107.94 7.96L107.94 7.96Q109.52 7.96 110.39 8.72Q111.27 9.47 111.27 10.83L111.27 10.83Q111.27 12.13 110.38 12.93Q109.48 13.74 107.94 13.74ZM120.90 36L115.26 36L115.26 17.41L120.58 17.41L120.76 20.77L120.02 20.81Q120.44 19.90 121.09 19.20Q121.73 18.50 122.56 18.03Q123.38 17.55 124.27 17.31Q125.17 17.06 126.08 17.06L126.08 17.06Q127.44 17.06 128.56 17.48Q129.68 17.90 130.52 18.83Q131.36 19.76 131.85 21.34L131.85 21.34L130.97 21.27L131.25 20.70Q131.71 19.86 132.43 19.18Q133.15 18.50 134.02 18.03Q134.90 17.55 135.84 17.31Q136.78 17.06 137.66 17.06L137.66 17.06Q139.87 17.06 141.34 17.92Q142.81 18.78 143.56 20.49Q144.31 22.21 144.31 24.66L144.31 24.66L144.31 36L138.68 36L138.68 25.11Q138.68 23.99 138.36 23.26Q138.05 22.52 137.43 22.16Q136.82 21.79 135.91 21.79L135.91 21.79Q135.18 21.79 134.56 22.03Q133.95 22.28 133.51 22.70Q133.07 23.12 132.83 23.68Q132.59 24.24 132.59 24.94L132.59 24.94L132.59 36L126.95 36L126.95 25.08Q126.95 24.03 126.64 23.29Q126.32 22.56 125.69 22.17Q125.06 21.79 124.22 21.79L124.22 21.79Q123.48 21.79 122.87 22.03Q122.26 22.28 121.82 22.70Q121.39 23.12 121.14 23.68Q120.90 24.24 120.90 24.91L120.90 24.91L120.90 36ZM154.18 36L148.58 36L148.58 17.41L154.18 17.41L154.18 36ZM151.38 13.74L151.38 13.74Q149.81 13.74 148.91 12.99Q148.02 12.23 148.02 10.83L148.02 10.83Q148.02 9.57 148.93 8.77Q149.84 7.96 151.38 7.96L151.38 7.96Q152.96 7.96 153.83 8.72Q154.71 9.47 154.71 10.83L154.71 10.83Q154.71 12.13 153.81 12.93Q152.92 13.74 151.38 13.74ZM173.71 36L158.00 36L158.00 32.78L167.87 20.11L167.87 21.96L158.00 21.96L158.00 17.41L173.40 17.41L173.40 20.77L164.05 33.06L163.91 31.45L173.71 31.45L173.71 36ZM185.79 36.35L185.79 36.35Q182.71 36.35 180.43 35.11Q178.16 33.87 176.90 31.71Q175.64 29.56 175.64 26.80L175.64 26.80Q175.64 24.66 176.34 22.88Q177.04 21.09 178.30 19.78Q179.56 18.46 181.29 17.75Q183.02 17.03 185.09 17.03L185.09 17.03Q187.05 17.03 188.67 17.73Q190.30 18.43 191.49 19.69Q192.68 20.95 193.31 22.66Q193.94 24.38 193.87 26.41L193.87 26.41L193.84 27.91L179.03 27.91L178.23 24.77L189.29 24.77L188.69 25.43L188.69 24.73Q188.62 23.85 188.15 23.17Q187.68 22.49 186.91 22.10Q186.14 21.72 185.16 21.72L185.16 21.72Q183.79 21.72 182.83 22.26Q181.87 22.80 181.38 23.84Q180.89 24.87 180.89 26.38L180.89 26.38Q180.89 27.91 181.53 29.05Q182.18 30.19 183.42 30.82Q184.67 31.45 186.38 31.45L186.38 31.45Q187.57 31.45 188.50 31.10Q189.43 30.75 190.51 29.91L190.51 29.91L193.14 33.62Q192.05 34.56 190.83 35.16Q189.60 35.76 188.32 36.05Q187.05 36.35 185.79 36.35Z"></path></g>
        
      </svg>